<svg width="14" height="18" viewBox="0 0 14 18" fill="none" xmlns="http://www.w3.org/2000/svg">
<path d="M11.2683 1.59927C11.2683 1.27396 11.1501 0.959732 10.9356 0.715124C10.7212 0.470515 10.4251 0.312204 10.1026 0.269685C9.78004 0.227167 9.45305 0.303339 9.18252 0.48401C8.91199 0.664681 8.71639 0.937534 8.6321 1.25174C8.54781 1.56594 8.5806 1.90007 8.72439 2.19188C8.86817 2.48369 9.1131 2.71329 9.4136 2.8379C9.7141 2.96251 10.0497 2.97364 10.3577 2.86921C10.6658 2.76478 10.9255 2.55192 11.0883 2.27027C11.2061 2.06628 11.2682 1.83486 11.2683 1.59927Z" fill="#C3EDD8"/>
<path d="M5.12524 12.1293C5.04985 12.2584 4.94414 12.3672 4.81724 12.4463C4.67499 12.5311 4.51894 12.5904 4.35622 12.6213C4.33322 12.6213 4.23623 12.6303 4.23623 12.6353V12.7843C4.23623 12.8843 4.25723 12.9843 4.16323 12.9843H3.87324C3.80624 12.9843 3.72922 13.0003 3.72922 12.8843V12.6713C3.5887 12.6652 3.44874 12.6498 3.31023 12.6253C3.19388 12.6025 3.08095 12.5649 2.97423 12.5133C2.95521 12.5032 2.93969 12.4875 2.92969 12.4684C2.9197 12.4493 2.91571 12.4277 2.91823 12.4063V11.9403C2.91703 11.9205 2.92127 11.9007 2.93049 11.8831C2.93971 11.8655 2.95356 11.8507 2.97054 11.8405C2.98753 11.8302 3.007 11.8247 3.02686 11.8247C3.04672 11.8246 3.06621 11.83 3.08323 11.8403C3.166 11.8954 3.25494 11.9407 3.34823 11.9753C3.5085 12.0335 3.67771 12.0633 3.84823 12.0633C3.93428 12.0646 4.02019 12.0559 4.10422 12.0373C4.16848 12.0231 4.22998 11.9984 4.28623 11.9643C4.33143 11.9368 4.3692 11.8987 4.39623 11.8533C4.41968 11.8111 4.43175 11.7635 4.43124 11.7153C4.43181 11.6506 4.41147 11.5875 4.37324 11.5353C4.32981 11.4778 4.27666 11.4284 4.21622 11.3893C4.1408 11.3394 4.06155 11.2956 3.97922 11.2583C3.88722 11.2173 3.78824 11.1743 3.67924 11.1313C3.44862 11.045 3.24262 10.9035 3.07923 10.7193C2.94513 10.5535 2.87426 10.3455 2.87923 10.1323C2.87227 9.97224 2.9067 9.81311 2.97922 9.67027C3.04768 9.5426 3.14577 9.43321 3.26523 9.35127C3.39111 9.26522 3.5318 9.20318 3.68023 9.16827C3.70723 9.16127 3.72922 9.15627 3.72922 9.15027V8.91028C3.72922 8.83128 3.79024 8.83327 3.79124 8.83327H4.17924C4.18725 8.83365 4.1951 8.83562 4.20235 8.83905C4.20961 8.84248 4.21612 8.8473 4.2215 8.85324C4.22689 8.85919 4.23106 8.86613 4.23376 8.87369C4.23645 8.88124 4.23764 8.88927 4.23724 8.89728V9.11028C4.38479 9.11004 4.53216 9.12039 4.67823 9.14127C4.80127 9.15722 4.92319 9.18093 5.04323 9.21227C5.09123 9.22826 5.14323 9.27426 5.14323 9.32426V9.75627C5.14024 9.77821 5.1321 9.79911 5.11947 9.81729C5.10683 9.83547 5.09007 9.8504 5.07055 9.86084C5.05103 9.87128 5.02931 9.87694 5.00718 9.87737C4.98505 9.87779 4.96313 9.87296 4.94323 9.86327C4.93723 9.86327 4.90423 9.85627 4.89823 9.85327C4.8299 9.82296 4.75937 9.79789 4.68723 9.77827C4.6164 9.75815 4.54421 9.74311 4.47123 9.73328C4.40496 9.7239 4.33815 9.71889 4.27123 9.71828C4.19054 9.71751 4.11002 9.72589 4.03123 9.74327C3.96674 9.75673 3.90492 9.78072 3.84823 9.81427C3.80183 9.84138 3.76217 9.87864 3.73223 9.92326C3.70474 9.96621 3.69048 10.0163 3.69123 10.0673C3.69075 10.1224 3.70677 10.1764 3.73724 10.2223C3.77288 10.2727 3.81683 10.3166 3.86722 10.3523C3.93201 10.398 4.0006 10.4382 4.07223 10.4723C4.15223 10.5113 4.24322 10.5523 4.34322 10.5933C4.47135 10.6463 4.59566 10.7081 4.71523 10.7783C4.81874 10.8385 4.9136 10.9125 4.99723 10.9983C5.07556 11.0787 5.13709 11.1738 5.17823 11.2783C5.22019 11.3959 5.23953 11.5204 5.23524 11.6453C5.24071 11.8134 5.20283 11.9801 5.12524 12.1293ZM7.80823 8.27727L4.96523 3.59627H6.17823C6.22244 3.59627 6.26621 3.58755 6.30704 3.5706C6.34787 3.55365 6.38496 3.52882 6.41617 3.49751C6.44739 3.46621 6.47212 3.42903 6.48894 3.38815C6.50577 3.34727 6.51436 3.30349 6.51423 3.25928V2.44028C6.51436 2.39607 6.50577 2.35227 6.48894 2.31139C6.47212 2.27051 6.44739 2.23335 6.41617 2.20204C6.38496 2.17074 6.34787 2.14588 6.30704 2.12894C6.26621 2.11199 6.22244 2.10327 6.17823 2.10327H0.549232C0.505023 2.10327 0.461248 2.11199 0.420417 2.12894C0.379586 2.14588 0.3425 2.17074 0.311286 2.20204C0.280072 2.23335 0.255344 2.27051 0.238517 2.31139C0.22169 2.35227 0.213101 2.39607 0.213233 2.44028V16.9043C0.210288 17.0709 0.273617 17.2319 0.389304 17.3519C0.504992 17.4719 0.663583 17.5411 0.830237 17.5443H7.28423C7.36684 17.5428 7.44835 17.5251 7.52412 17.4922C7.59988 17.4593 7.66842 17.4117 7.72581 17.3523C7.7832 17.2929 7.82832 17.2227 7.85859 17.1458C7.88886 17.069 7.90369 16.9869 7.90223 16.9043V8.62128C7.9021 8.50109 7.86926 8.38321 7.80723 8.28027" fill="#C3EDD8"/>
<path d="M13.8952 8.12328V16.4583C13.8952 16.745 13.7814 17.0199 13.5787 17.2227C13.3759 17.4254 13.1009 17.5393 12.8142 17.5393C12.5276 17.5393 12.2526 17.4254 12.0498 17.2227C11.8471 17.0199 11.7333 16.745 11.7333 16.4583V9.47328L11.7223 9.48128L10.6543 5.38129C10.6516 5.37087 10.6458 5.36147 10.6378 5.35428C10.6298 5.34708 10.6198 5.3424 10.6092 5.3408C10.5985 5.33921 10.5877 5.34076 10.5779 5.34529C10.5682 5.34982 10.5599 5.35713 10.5542 5.36629L9.92423 6.31528C9.8604 6.41172 9.76864 6.48639 9.66123 6.52928L7.86125 7.23929C7.79732 7.26446 7.72648 7.26578 7.66166 7.24301C7.59684 7.22024 7.54242 7.1749 7.50828 7.11528L7.36723 6.86728C7.34828 6.83419 7.33621 6.79764 7.33164 6.75978C7.32708 6.72192 7.33014 6.68354 7.34068 6.6469C7.35121 6.61025 7.36901 6.57608 7.39298 6.54643C7.41696 6.51678 7.44663 6.49226 7.48026 6.47429L9.04228 5.64229C9.16969 5.57362 9.26593 5.45875 9.31126 5.32129L9.80625 3.85329C9.86282 3.68445 9.95442 3.52946 10.0751 3.39848C10.1957 3.26751 10.3426 3.1635 10.5063 3.09328L11.0063 2.87929C11.1445 2.82023 11.2934 2.79055 11.4437 2.79214C11.594 2.79374 11.7423 2.82655 11.8792 2.88852C12.0161 2.95049 12.1387 3.04026 12.2391 3.15211C12.3394 3.26397 12.4154 3.39548 12.4623 3.53828L13.8393 7.75629C13.8784 7.87641 13.8983 8.00195 13.8982 8.12828" fill="#C3EDD8"/>
</svg>
