<svg width="19" height="19" viewBox="0 0 19 19" fill="none" xmlns="http://www.w3.org/2000/svg">
<path d="M18.1412 4.77411H17.8572V3.07411C17.8572 1.48311 14.3342 0.233109 9.9012 0.233109C5.4682 0.233109 1.94521 1.48311 1.94521 3.07411V4.77411H1.66121C1.43524 4.77411 1.21853 4.86387 1.05875 5.02365C0.898969 5.18344 0.809204 5.40015 0.809204 5.62611V8.46711C0.809469 8.69299 0.89932 8.90955 1.05904 9.06927C1.21877 9.22899 1.43532 9.31884 1.66121 9.31911H1.94521V15.0001C1.94481 15.1496 1.9739 15.2977 2.0308 15.4359C2.0877 15.5741 2.1713 15.6998 2.27681 15.8057C2.38232 15.9116 2.50768 15.9956 2.64571 16.053C2.78373 16.1104 2.93172 16.14 3.0812 16.1401V17.2771C3.0812 17.5787 3.20099 17.8679 3.41422 18.0811C3.62745 18.2943 3.91665 18.4141 4.2182 18.4141H5.35521C5.65676 18.4141 5.94595 18.2943 6.15918 18.0811C6.37241 17.8679 6.49221 17.5787 6.49221 17.2771V16.1401H13.3112V17.2771C13.3112 17.5787 13.431 17.8679 13.6442 18.0811C13.8575 18.2943 14.1467 18.4141 14.4482 18.4141H15.5812C15.8828 18.4141 16.172 18.2943 16.3852 18.0811C16.5984 17.8679 16.7182 17.5787 16.7182 17.2771V16.1401H16.9452C17.0649 16.1413 17.1837 16.1186 17.2945 16.0734C17.4053 16.0281 17.506 15.9612 17.5906 15.8765C17.6753 15.7919 17.7422 15.6912 17.7875 15.5804C17.8327 15.4696 17.8554 15.3508 17.8542 15.2311V9.32111H18.1382C18.3641 9.32084 18.5806 9.23099 18.7404 9.07127C18.9001 8.91155 18.9899 8.69499 18.9902 8.46911V5.62711C18.9902 5.40114 18.9004 5.18444 18.7407 5.02465C18.5809 4.86487 18.3642 4.77511 18.1382 4.77511L18.1412 4.77411ZM6.4912 2.78511C6.4912 2.70979 6.52113 2.63755 6.57439 2.58429C6.62765 2.53103 6.69988 2.50111 6.7752 2.50111H13.0262C13.1015 2.50111 13.1738 2.53103 13.227 2.58429C13.2803 2.63755 13.3102 2.70979 13.3102 2.78511V3.35311C13.3102 3.42843 13.2803 3.50067 13.227 3.55393C13.1738 3.60719 13.1015 3.63711 13.0262 3.63711H6.7752C6.69988 3.63711 6.62765 3.60719 6.57439 3.55393C6.52113 3.50067 6.4912 3.42843 6.4912 3.35311V2.78511ZM4.79121 14.4351C4.52799 14.436 4.2726 14.3456 4.06862 14.1792C3.86464 14.0129 3.72469 13.7809 3.67267 13.5228C3.62064 13.2648 3.65975 12.9967 3.78333 12.7643C3.90691 12.5319 4.10729 12.3496 4.3503 12.2484C4.59331 12.1473 4.86389 12.1336 5.11588 12.2096C5.36787 12.2857 5.58565 12.4469 5.73207 12.6656C5.8785 12.8844 5.9445 13.1471 5.91881 13.4091C5.89312 13.6711 5.77733 13.916 5.59121 14.1021C5.37895 14.3144 5.09137 14.4341 4.79121 14.4351ZM9.3372 10.4571H5.35421C5.05265 10.4571 4.76345 10.3373 4.55022 10.1241C4.337 9.91086 4.21721 9.62166 4.21721 9.32011V5.91011C4.21721 5.60856 4.337 5.31936 4.55022 5.10613C4.76345 4.8929 5.05265 4.77311 5.35421 4.77311H9.33221L9.3372 10.4571ZM10.4742 10.4571V4.77411H14.4522C14.7524 4.77622 15.0395 4.89694 15.251 5.10994C15.4625 5.32294 15.5812 5.61094 15.5812 5.91111V9.32111C15.5812 9.62266 15.4614 9.91186 15.2482 10.1251C15.035 10.3383 14.7458 10.4581 14.4442 10.4581L10.4742 10.4571ZM15.0202 14.4351C14.757 14.436 14.5016 14.3456 14.2976 14.1792C14.0936 14.0129 13.9537 13.7809 13.9017 13.5228C13.8496 13.2648 13.8888 12.9967 14.0123 12.7643C14.1359 12.5319 14.3363 12.3496 14.5793 12.2484C14.8223 12.1473 15.0929 12.1336 15.3449 12.2096C15.5969 12.2857 15.8146 12.4469 15.9611 12.6656C16.1075 12.8844 16.1735 13.1471 16.1478 13.4091C16.1221 13.6711 16.0063 13.916 15.8202 14.1021C15.7145 14.2078 15.589 14.2916 15.4509 14.3488C15.3127 14.4059 15.1647 14.4352 15.0152 14.4351H15.0202Z" fill="#FA9233"/>
</svg>
