<svg width="26" height="26" viewBox="0 0 26 26" fill="none" xmlns="http://www.w3.org/2000/svg">
<path d="M8.91476 12.4525C8.30618 12.5968 7.76521 12.9448 7.38161 13.4388C6.99801 13.9328 6.79482 14.5431 6.80576 15.1685C7.30941 14.6412 7.9398 14.2518 8.63676 14.0375L8.91476 12.4525ZM4.84676 14.2755L3.68676 7.70346C3.67678 7.67012 3.68038 7.63417 3.69676 7.60346C5.81344 6.42788 8.19454 5.8105 10.6158 5.80946H10.7888C11.3024 5.30052 11.964 4.96726 12.6788 4.85746C13.3744 4.75212 14.0756 4.688 14.7788 4.66546C14.6024 4.40662 14.376 4.18575 14.1129 4.01588C13.8497 3.84601 13.5552 3.7306 13.2468 3.67646C12.3778 3.53605 11.499 3.46583 10.6188 3.46647C7.7988 3.46608 5.02536 4.18508 2.56076 5.55546C2.12435 5.80514 1.77629 6.18423 1.56472 6.64034C1.35315 7.09644 1.28852 7.60702 1.37976 8.10146L2.54176 14.6695C3.06376 17.6165 7.53176 19.8695 10.0288 19.8695C10.1515 19.8684 10.274 19.8601 10.3958 19.8445C9.80691 19.0864 9.3207 18.2538 8.94976 17.3685C7.20576 16.9035 5.06276 15.4875 4.84676 14.2755ZM8.42076 9.24846C8.39131 9.10291 8.34077 8.96242 8.27076 8.83146C7.91942 9.18343 7.46802 9.41842 6.97818 9.50432C6.48833 9.59023 5.98391 9.52289 5.53376 9.31147C5.50611 9.52038 5.52399 9.7328 5.58616 9.93416C5.64833 10.1355 5.75332 10.321 5.89394 10.478C6.03455 10.635 6.20746 10.7597 6.4008 10.8435C6.59413 10.9274 6.80332 10.9684 7.01401 10.9638C7.22469 10.9592 7.4319 10.9091 7.62139 10.8169C7.81088 10.7247 7.97819 10.5926 8.11182 10.4296C8.24545 10.2667 8.34226 10.0767 8.39558 9.87285C8.44891 9.66897 8.4575 9.45597 8.42076 9.24846ZM23.5558 7.90847C20.3047 6.10196 16.5412 5.43954 12.8688 6.02745C12.3752 6.10539 11.9185 6.33628 11.5631 6.68757C11.2077 7.03885 10.9715 7.49281 10.8878 7.98546L9.72376 14.5855C9.16076 17.7755 13.2138 21.7725 15.5238 22.1755C17.7978 22.5835 23.0108 20.2105 23.5748 17.0205L24.7368 10.4485C24.8285 9.95484 24.764 9.44491 24.5523 8.98964C24.3407 8.53438 23.9923 8.15646 23.5558 7.90847ZM13.5498 11.4525C13.6249 11.0779 13.8434 10.7474 14.1585 10.5315C14.4737 10.3155 14.8607 10.2312 15.2372 10.2964C15.6137 10.3615 15.9498 10.5711 16.174 10.8804C16.3983 11.1898 16.4929 11.5744 16.4378 11.9525C16.4089 12.0996 16.3579 12.2415 16.2868 12.3735C15.9351 12.0222 15.484 11.7873 14.9945 11.7005C14.5051 11.6138 14.0008 11.6794 13.5498 11.8885C13.514 11.7453 13.514 11.5956 13.5498 11.4525ZM16.0978 18.7275C15.142 18.5719 14.2785 18.0655 13.6761 17.3074C13.0736 16.5492 12.7754 15.5937 12.8398 14.6275C13.8084 15.6617 15.0864 16.3537 16.4819 16.5997C17.8773 16.8456 19.3149 16.6322 20.5788 15.9915C20.3103 16.9259 19.7009 17.7255 18.8711 18.2322C18.0413 18.7388 17.0516 18.9156 16.0978 18.7275ZM20.9048 13.1885C20.5524 12.8368 20.1003 12.6021 19.61 12.5162C19.1196 12.4303 18.6147 12.4974 18.1638 12.7085C18.1409 12.5613 18.1409 12.4116 18.1638 12.2645C18.2378 11.8885 18.4563 11.5565 18.7724 11.3398C19.0884 11.1231 19.4768 11.039 19.8542 11.1055C20.2316 11.172 20.5679 11.3838 20.7909 11.6955C21.0138 12.0072 21.1057 12.3938 21.0468 12.7725C21.0163 12.9169 20.9672 13.0567 20.9008 13.1885H20.9048Z" fill="#C9E265"/>
</svg>
