<svg width="22" height="19" viewBox="0 0 22 19" fill="none" xmlns="http://www.w3.org/2000/svg">
<path d="M21.1981 6.19074C21.1962 5.18185 20.8954 4.19615 20.3337 3.35809C19.772 2.52002 18.9746 1.86719 18.0421 1.482C17.1097 1.09682 16.084 0.996562 15.0946 1.1939C14.1052 1.39123 13.1964 1.8773 12.4831 2.59074L11.0091 4.02874L9.5351 2.59074C9.07836 2.05547 8.51579 1.62051 7.88278 1.31322C7.24977 1.00592 6.56002 0.832939 5.85691 0.805155C5.15381 0.777372 4.45256 0.895386 3.79727 1.15177C3.14199 1.40816 2.54685 1.79738 2.0493 2.29494C1.55174 2.7925 1.16252 3.38764 0.906134 4.04292C0.649747 4.6982 0.531736 5.39945 0.559519 6.10256C0.587303 6.80566 0.760281 7.49541 1.06758 8.12842C1.37487 8.76143 1.80983 9.324 2.3451 9.78075L2.9851 10.4207H1.6621C1.45626 10.4281 1.2613 10.5149 1.11826 10.6631C0.975228 10.8113 0.895293 11.0093 0.895293 11.2152C0.895293 11.4212 0.975228 11.6191 1.11826 11.7673C1.2613 11.9155 1.45626 12.0024 1.6621 12.0097H4.5381L10.4561 17.9347C10.529 18.0083 10.6158 18.0667 10.7114 18.1066C10.807 18.1465 10.9095 18.167 11.0131 18.167C11.1167 18.167 11.2192 18.1465 11.3148 18.1066C11.4104 18.0667 11.4972 18.0083 11.5701 17.9347L17.4801 12.0097H20.3561C20.4658 12.0201 20.5764 12.0074 20.6808 11.9726C20.7853 11.9377 20.8814 11.8814 20.9628 11.8073C21.0443 11.7331 21.1094 11.6428 21.1539 11.5421C21.1984 11.4413 21.2214 11.3324 21.2214 11.2222C21.2214 11.1121 21.1984 11.0032 21.1539 10.9024C21.1094 10.8017 21.0443 10.7114 20.9628 10.6372C20.8814 10.5631 20.7853 10.5068 20.6808 10.4719C20.5764 10.4371 20.4658 10.4244 20.3561 10.4347H19.0631L19.7031 9.79474C20.1811 9.32359 20.5601 8.76158 20.8177 8.14179C21.0753 7.52199 21.2064 6.85694 21.2031 6.18575L21.1981 6.19074ZM11.0101 16.2567L6.7491 12.0007C6.86152 11.9936 6.97106 11.9623 7.07029 11.9089C7.16951 11.8556 7.25608 11.7815 7.3241 11.6917L8.6611 9.90874L10.2861 13.6907C10.337 13.8086 10.416 13.9122 10.5162 13.9924C10.6165 14.0727 10.7349 14.127 10.8611 14.1507H11.0121C11.22 14.1505 11.4192 14.0678 11.5661 13.9207L14.6001 10.9007L15.4841 11.7847L11.0101 16.2567ZM18.5881 8.68575L16.8331 10.4327H16.3661L15.1581 9.22475C15.01 9.07782 14.8098 8.99538 14.6011 8.99538C14.3924 8.99538 14.1922 9.07782 14.0441 9.22475L11.2691 11.9997L9.5691 8.03774C9.51563 7.91017 9.42937 7.79903 9.31906 7.71558C9.20875 7.63213 9.07833 7.57934 8.94102 7.56258C8.80372 7.54582 8.66443 7.56569 8.53729 7.62017C8.41015 7.67464 8.29968 7.76178 8.2171 7.87274L6.2971 10.4327H5.1861L3.4321 8.68575C2.77039 8.02403 2.39864 7.12654 2.39864 6.19074C2.39864 5.25493 2.77039 4.35746 3.4321 3.69574C4.09382 3.03403 4.99129 2.66228 5.9271 2.66228C6.86291 2.66228 7.76039 3.03403 8.4221 3.69574L10.4571 5.73075C10.6053 5.87767 10.8055 5.96012 11.0141 5.96012C11.2228 5.96012 11.423 5.87767 11.5711 5.73075L13.5991 3.69574C13.9267 3.36809 14.3157 3.10819 14.7438 2.93086C15.1719 2.75354 15.6307 2.66228 16.0941 2.66228C16.5575 2.66228 17.0163 2.75354 17.4444 2.93086C17.8725 3.10819 18.2615 3.36809 18.5891 3.69574C18.9167 4.02339 19.1767 4.41236 19.354 4.84046C19.5313 5.26855 19.6226 5.72737 19.6226 6.19074C19.6226 6.6541 19.5313 7.11294 19.354 7.54103C19.1767 7.96913 18.9167 8.3581 18.5891 8.68575H18.5881Z" fill="#FF9190"/>
</svg>
