<svg width="25" height="25" viewBox="0 0 25 25" fill="none" xmlns="http://www.w3.org/2000/svg">
<path d="M12.0697 14.6912C14.1717 14.6912 15.8757 12.9872 15.8757 10.8853C15.8757 8.7833 14.1717 7.07932 12.0697 7.07932C9.96777 7.07932 8.26379 8.7833 8.26379 10.8853C8.26379 12.9872 9.96777 14.6912 12.0697 14.6912Z" stroke="#CACACA" stroke-width="2" stroke-miterlimit="10" stroke-linecap="round" stroke-linejoin="round"/>
<path d="M18.6995 20.4614C18.6995 17.2693 16.1213 14.6911 12.9292 14.6911H11.149C7.95694 14.6911 5.37872 17.2693 5.37872 20.4614" stroke="#CACACA" stroke-width="2" stroke-miterlimit="10" stroke-linecap="round" stroke-linejoin="round"/>
<path d="M12.0698 23.2853C18.1723 23.2853 23.1193 18.3382 23.1193 12.2358C23.1193 6.13331 18.1723 1.18628 12.0698 1.18628C5.96735 1.18628 1.02032 6.13331 1.02032 12.2358C1.02032 18.3382 5.96735 23.2853 12.0698 23.2853Z" stroke="#CACACA" stroke-width="2" stroke-miterlimit="10" stroke-linecap="round" stroke-linejoin="round"/>
</svg>
