<svg width="19" height="21" viewBox="0 0 19 21" fill="none" xmlns="http://www.w3.org/2000/svg">
<path d="M18.8871 18.789L18.2781 4.96502C18.2708 4.47217 18.0697 4.00201 17.7185 3.6562C17.3673 3.31039 16.894 3.11671 16.4011 3.11702H13.2891C13.1658 2.30679 12.7563 1.56757 12.1347 1.03342C11.5131 0.499271 10.7207 0.205566 9.90112 0.205566C9.08156 0.205566 8.28913 0.499271 7.66756 1.03342C7.04598 1.56757 6.63641 2.30679 6.51311 3.11702H3.40612C2.91314 3.11645 2.43976 3.31005 2.08846 3.65591C1.73717 4.00178 1.53621 4.47209 1.52911 4.96502L0.917114 18.788C0.917114 18.8 0.917114 18.812 0.917114 18.823C0.918174 19.32 1.11643 19.7963 1.46835 20.1473C1.82027 20.4983 2.29709 20.6953 2.79412 20.695H17.0141C17.5111 20.6953 17.988 20.4983 18.3399 20.1473C18.6918 19.7963 18.8901 19.32 18.8911 18.823C18.8881 18.813 18.8881 18.805 18.8871 18.789ZM9.89912 1.80502C10.2948 1.80607 10.6795 1.93482 10.9961 2.17212C11.3126 2.40941 11.5441 2.74257 11.6561 3.12202H8.14112C8.2533 2.74249 8.48499 2.4093 8.80173 2.17201C9.11848 1.93473 9.50335 1.80602 9.89912 1.80502ZM17.0111 19.105H2.79111C2.71856 19.1064 2.64835 19.0793 2.59547 19.0296C2.54259 18.9799 2.51124 18.9115 2.50812 18.839L3.11912 5.02402C3.11912 5.01202 3.11912 4.99802 3.11912 4.98702C3.11938 4.95039 3.1269 4.91417 3.14125 4.88047C3.1556 4.84676 3.17649 4.81624 3.20272 4.79066C3.22895 4.76508 3.25998 4.74497 3.29404 4.73147C3.32809 4.71797 3.36449 4.71136 3.40112 4.71202H6.46212V7.62502C6.45171 7.7359 6.46457 7.84772 6.49986 7.95334C6.53516 8.05896 6.59212 8.15604 6.66709 8.23838C6.74207 8.32072 6.83341 8.3865 6.93526 8.43151C7.03712 8.47652 7.14725 8.49977 7.25861 8.49977C7.36997 8.49977 7.48011 8.47652 7.58197 8.43151C7.68383 8.3865 7.77517 8.32072 7.85014 8.23838C7.92512 8.15604 7.98208 8.05896 8.01737 7.95334C8.05267 7.84772 8.06552 7.7359 8.05511 7.62502V4.70502H11.7231V7.61802C11.7231 7.83019 11.8074 8.03368 11.9574 8.18371C12.1075 8.33374 12.311 8.41802 12.5231 8.41802C12.9631 8.41802 13.3231 7.61802 13.3231 7.61802V4.70502H16.4041C16.4408 4.70422 16.4773 4.71074 16.5115 4.72417C16.5457 4.73761 16.5768 4.75771 16.6032 4.7833C16.6295 4.80889 16.6505 4.83946 16.6649 4.87323C16.6793 4.907 16.6869 4.9433 16.6871 4.98002C16.6871 4.99202 16.6871 5.00402 16.6871 5.01602L17.2991 18.832C17.2962 18.9047 17.265 18.9734 17.2121 19.0233C17.1592 19.0732 17.0888 19.1004 17.0161 19.099L17.0111 19.105Z" fill="#AAB6FB"/>
<path d="M9.17313 14.821C9.07785 14.8201 8.9837 14.8003 8.89615 14.7627C8.8086 14.7251 8.72937 14.6705 8.66312 14.602L7.20612 13.145C7.07086 13.0098 6.99487 12.8263 6.99487 12.635C6.99487 12.4437 7.07086 12.2603 7.20612 12.125C7.34138 11.9898 7.52484 11.9138 7.71613 11.9138C7.90741 11.9138 8.09084 11.9898 8.2261 12.125L9.17313 13.072L11.5731 10.672C11.7084 10.5368 11.8918 10.4608 12.0831 10.4608C12.2744 10.4608 12.4578 10.5368 12.5931 10.672C12.7284 10.8073 12.8044 10.9907 12.8044 11.182C12.8044 11.3733 12.7284 11.5568 12.5931 11.692L9.68011 14.606C9.61386 14.6745 9.53467 14.7291 9.44711 14.7667C9.35956 14.8043 9.26538 14.8241 9.1701 14.825L9.17313 14.821Z" fill="#AAB6FB"/>
</svg>
